<svg fill="none" xmlns="http://www.w3.org/2000/svg" viewBox="0 0 161 160">
  <g clip-path="url(#a)">
    <path d="M137.274 102.22c-5.14-.326-12.966-.854-16.344-1.971.334-4.603-.819-11.223-6.739-19.33-4.656-6.926-8.471-7.383-8.471-7.383-1.056-2.399-2.818-4.466-4.174-5.834.939-2.7.627-5.572-2.399-7.677.457-2.68-3.351-8.963-5.345-8.191-.651.252-2.211 2.692-3.517 5.473a46.818 46.818 0 0 0-5.608-.228c-1.744-1.6-6.905-6.03-9.052-4.53-.645.45-.525 4.717-.281 8.063-2.588 3.008-4.748 7.485-.107 12.043.158.156.32.306.484.457a8.48 8.48 0 0 1-.072 1.264c-.281 1.998-1.713 5.748 1.325 13.502 1.104 2.838 2.539 6.225 3.235 9.377.457 2.067.035 4.474-.734 6.12-.99 2.116.53 4.546 2.867 4.546l36.411-.444h21.4s3.362-4.86-2.879-5.257Z" fill="#FE7624"/>
    <path d="M76.745 53.29s3.946 3.162 3.971 6.043m13.265-6.598s2.687 2.734 1.828 6.433" stroke="#2E186A" stroke-width=".685" stroke-linecap="round" stroke-linejoin="round"/>
    <path d="M87.454 63.827c.112-.724-.17-1.368-.63-1.44-.46-.072-.923.457-1.036 1.18-.113.724.169 1.369.629 1.44.46.072.924-.457 1.037-1.18Zm-6.487.034c.113-.723-.168-1.368-.629-1.44-.46-.071-.924.457-1.036 1.18-.113.725.168 1.37.628 1.44.46.072.925-.456 1.037-1.18Z" fill="#2E186A"/>
    <path d="M85.258 68.578c-1.925 1.165-2.324-.658-2.444-1.642-.128.925-.714 2.955-2.097 1.641" stroke="#2E186A" stroke-width=".685" stroke-linecap="round" stroke-linejoin="round"/>
    <path d="m81.396 66.07 1.122.976a.472.472 0 0 0 .601-.018l1.057-.95c.253-.228.091-.589-.267-.593l-2.18-.029c-.379-.005-.591.389-.333.614Z" fill="#2E186A"/>
    <path d="M77.594 66.44s-5.64-5.293-12.27-1.28m12.308 2.323s-6.55-4.111-12.29 1.095m23.775-2.616s5.641-5.293 12.271-1.28m-12.316 2.324s6.552-4.112 12.29 1.094m-24.526 6.417c13.335 6.46 21.805-.709 23.441-3.35" stroke="#2E186A" stroke-width=".685" stroke-linecap="round" stroke-linejoin="round"/>
    <path d="M136.867 82.58c0-6.738-6.321-12.203-14.118-12.203-7.36 0-13.403 4.868-14.059 11.078l.187 13.329 15.365-.069c7.095-.644 12.625-5.827 12.625-12.135Z" fill="#fff" stroke="#2E186A" stroke-width=".685" stroke-linecap="round" stroke-linejoin="round"/>
    <path d="M114.546 85.946a.444.444 0 0 1-.267.4.427.427 0 0 1-.594-.399v-5.73a.415.415 0 0 1 .125-.308.43.43 0 0 1 .608 0 .437.437 0 0 1 .128.307v1.978a2.138 2.138 0 0 1 2.113-.255 2.18 2.18 0 0 1 1.156 1.142c.115.264.174.55.172.84v2.023a.432.432 0 0 1-.791.24.427.427 0 0 1-.07-.24v-2.022a1.224 1.224 0 0 0-.103-.499 1.327 1.327 0 0 0-.689-.689 1.226 1.226 0 0 0-.499-.102 1.244 1.244 0 0 0-.501.1 1.33 1.33 0 0 0-.688.691 1.263 1.263 0 0 0-.101.5l.001 2.023Zm7.602-.866a.411.411 0 0 1 .4.263c.021.052.031.11.029.166a.418.418 0 0 1-.123.31 2.31 2.31 0 0 1-3.543-2.84 2.31 2.31 0 0 1 3.315-.829c.38.252.678.609.858 1.028.115.282.172.584.17.888a.417.417 0 0 1-.433.429h-3.266a1.435 1.435 0 0 0 .93.944c.147.05.302.074.457.074.337.008.664-.11.919-.33a.456.456 0 0 1 .287-.103Zm.186-1.439a1.4 1.4 0 0 0-.208-.414 1.492 1.492 0 0 0-.726-.529 1.396 1.396 0 0 0-.457-.074 1.52 1.52 0 0 0-.866.282c-.123.09-.232.197-.321.32a1.339 1.339 0 0 0-.202.415h2.78Zm1.537 2.309v-5.734a.427.427 0 0 1 .122-.307.438.438 0 0 1 .614 0 .421.421 0 0 1 .122.307v5.302h.198a.417.417 0 0 1 .397.267.433.433 0 0 1-.094.469.431.431 0 0 1-.303.125h-.632a.415.415 0 0 1-.302-.126.429.429 0 0 1-.122-.303Zm1.98 0v-5.734a.41.41 0 0 1 .121-.307.438.438 0 0 1 .614 0 .421.421 0 0 1 .122.307v5.302h.198a.417.417 0 0 1 .397.267c.022.052.032.109.031.166a.404.404 0 0 1-.125.303.43.43 0 0 1-.303.125h-.63a.407.407 0 0 1-.302-.125.412.412 0 0 1-.123-.304Zm6.637-1.88a2.21 2.21 0 0 1-.675 1.633 2.318 2.318 0 0 1-1.86.664 2.317 2.317 0 0 1-1.694-1.014 2.315 2.315 0 0 1 .934-3.372 2.31 2.31 0 0 1 3.125 1.204c.113.281.17.581.17.885Zm-2.308-1.446a1.39 1.39 0 0 0-.572.114 1.46 1.46 0 0 0-.764.768 1.457 1.457 0 0 0 0 1.121 1.452 1.452 0 0 0 1.9.771c.345-.15.62-.427.768-.773a1.429 1.429 0 0 0-.309-1.574 1.46 1.46 0 0 0-.457-.313 1.382 1.382 0 0 0-.566-.114Z" fill="#2E186A"/>
    <path d="M76.085 107.769h84" stroke="#2E186A" stroke-width=".685" stroke-linecap="round" stroke-linejoin="round"/>
    <path d="M36.12 68.32a11.409 11.409 0 0 0 7.048-6.885 6.99 6.99 0 0 1 6.93 6.989c0 .099 0 .197-.008.295l.008-.008v6.675h-6.386a6.99 6.99 0 0 1-7.592-7.066Zm9.739 1.408c.404 0 .68-.311.68-.727 0-.415-.288-.727-.691-.727-.404 0-.681.3-.681.727s.265.727.692.727Zm-2.389 0c.405 0 .681-.311.681-.727 0-.415-.287-.727-.692-.727-.404 0-.68.3-.68.727s.264.727.691.727Zm-2.387 0c.403 0 .68-.311.68-.727 0-.415-.288-.727-.692-.727-.405 0-.681.3-.681.727s.266.727.693.727Z" fill="#FE7624"/>
    <path d="M21.691 57.404a10.786 10.786 0 1 1 10.785 10.92H21.67V57.38l.021.024Z" fill="#FE7624"/>
    <path d="M32.099 63.858h.046a.897.897 0 0 0 .915-1.258.9.9 0 0 0-.915-.528h-.046a.898.898 0 0 0 0 1.786Zm.859-5.033c.15-.202.562-.481 1.236-.838 1.543-.805 2.319-1.88 2.325-3.227 0-1.034-.372-1.882-1.115-2.543-.743-.662-1.72-.992-2.928-.992-2.116 0-3.469.973-4.057 2.92a.694.694 0 0 0 1.328.402c.423-1.368 1.309-2.052 2.657-2.052a2.763 2.763 0 0 1 1.763.59c.499.393.748.934.748 1.622a2.295 2.295 0 0 1-.775 1.718c-.36.27-.74.511-1.138.721-.507.285-.829.492-.965.62-.155.158-.28.343-.368.545-.105.22-.17.456-.194.698-.024.369-.035.738-.035 1.108a.648.648 0 0 0 1.113.474.646.646 0 0 0 .18-.474v-.344c0-.43.075-.747.225-.948Z" fill="#fff"/>
    <path d="m74.469 112.702-6.432-26.487a1.416 1.416 0 0 0-.891-1.003h2.48a1.092 1.092 0 0 1 1.062.842l5.22 22.099h15.484s.9 4.629-4.33 4.629H74.48a.332.332 0 0 0-.011-.08ZM31.018 85.215s35.191.073 35.183.086c0 .187.26.499.45.499a.75.75 0 0 1 .735.574l6.409 26.408h-36.78a1.09 1.09 0 0 1-1.064-.84l-5.995-25.384a1.093 1.093 0 0 1 1.062-1.343Zm20.157 16.905a2.7 2.7 0 0 0 2.5-1.668 2.705 2.705 0 1 0-2.5 1.668Zm-11.224.514a2.627 2.627 0 0 1 3.046 1.376 2.63 2.63 0 0 1-3.046 3.706v.693a3.292 3.292 0 0 0 2.626-.563 3.298 3.298 0 0 0 1.198-3.692 3.302 3.302 0 0 0-3.824-2.212v.692Z" fill="#2E186A"/>
    <path d="M29.168 101.281h10.983v8.13a3.37 3.37 0 0 1-3.37 3.37h-4.243a3.363 3.363 0 0 1-3.37-3.37v-8.13Z" fill="#FE7624"/>
  </g>
  <defs>
    <clipPath id="a">
      <path fill="#fff" d="M0 0h161v160H0z"/>
    </clipPath>
  </defs>
</svg>
