<?xml version="1.0" encoding="UTF-8"?>
<svg xmlns="http://www.w3.org/2000/svg" width="160" height="160" fill="none">
  <g clip-path="url(#clip0_10436_520)">
    <path d="M18.89 118.415V89.551a13.495 13.495 0 0113.495-13.496h10.74m45.961 22.329a25.627 25.627 0 00-1.85-.75c-2.2-3.08-5.735-11.615-9.43-16.776-.042-2.585.292-7.386-4.232-10.329" stroke="#2E186A" stroke-width=".582" stroke-linecap="round" stroke-linejoin="round"></path>
    <path d="M56.527 68.323C43.608 70.47 41.642 75.58 43.913 80.278c-4.051 2.18-10.725 6.852-16.553 15.989-9.121 14.284-.315 22.175 4.867 22.175 5.181 0 64.225-.435 64.225-.435s2.814-5.966.626-11.784" stroke="#2E186A" stroke-width=".582" stroke-linecap="round" stroke-linejoin="round"></path>
    <path d="M55.276 74.946l-1.287.934s8.568 8.921 12.41 27.081c.436 2.063.745 3.63.962 4.822-.009.011 2.6.277 2.536.251-.754-4.994-1.808-14.099-.29-18.502 2.145-6.25 2.202-9.865.746-14.432-.35-1.096-.837 7.092-3.418 10.01-6.513-7.239-11.66-10.164-11.66-10.164z" fill="#FE7624"></path>
    <path d="M57.566 71.27l-.092 1.58-1.976 2.272s5.85 3.617 11.45 9.994c0 0 2.364-2.472 3.168-10.049" stroke="#2E186A" stroke-width=".582" stroke-linecap="round" stroke-linejoin="round"></path>
    <path d="M59.704 88.421s3.22 6.701 3.662 11.255m8.564-11.495s-1.48 6.413-.993 10.959" stroke="#2E186A" stroke-width=".776" stroke-linecap="round" stroke-linejoin="round"></path>
    <path d="M80.635 113.333c1.058 1 1.643 1.627 1.715 1.912.173.679-1.21 1.067-2.354.009l-3.365-2.911s3.43 3.541 3.694 4.082c.265.542-1.073 1.5-3.054-.776-1.982-2.276-2.297-2.297-2.297-2.297s2.265 2.865 2.566 3.514c.302.649-1.608 1.261-3.36-1.747l-10.471-.417.617-7.547s5.218.794 8.8 1.54l.88.173a5.758 5.758 0 011.527.342c1.261.453 6.9 3.078 7.33 3.615.43.536-.102 1.568-1.48.888-1.378-.679-4.232-2.209-4.232-2.209" stroke="#2E186A" stroke-width=".582" stroke-linecap="round" stroke-linejoin="round"></path>
    <path d="M52.198 118.327c4.172.036 9.024-.743 10-.873 1.927-.253 1.4-1.705 2.814-2.062 1.415-.357 1.9-.724 1.9-.724-1.416-3.008.9-7.436.9-7.436s-.445-.182-1.83-.645c-1.386-.464-.749-1.871-2.65-2.271-1.902-.4-17.474-1.73-17.474-1.73" stroke="#2E186A" stroke-width=".582" stroke-linecap="round" stroke-linejoin="round"></path>
    <path d="M65.22 115.616c1.531-.374 2.054-.76 2.054-.76-1.54-3.194.952-7.874.952-7.874s-.485-.194-1.98-.689c-.605-.199-.855-.56-1.068-.947-3.58 3.19-2.45 9.69-1.884 12.066.815-.559.765-1.511 1.926-1.796z" fill="#2E186A"></path>
    <path d="M47.645 98.108s3.105.613 3.506 4.809m36.024 6.1s-.582 2.668-1.428 3.681.942 1.917 1.856 1.291c.126-.081.248-.169.364-.265m2.523-8.718c-1.591.085-2.963.863-3.035 3.022 0 0 .504 4.964.6 6.404.098 1.439 1.542 1.142 1.828.544" stroke="#2E186A" stroke-width=".582" stroke-linecap="round" stroke-linejoin="round"></path>
    <path d="M89.715 109.962s.078 3.029.174 4.464c.097 1.434 1.475 1.543 1.747.789.272-.754.023-5.255.023-5.255s.078 3.03.175 4.464c.097 1.434 1.393 1.394 1.679.796.201-.422 0-5.262 0-5.262s.078 3.03.175 4.464c.097 1.434 1.393 1.394 1.679.796.286-.597 1.091-7.55.087-8.466-.163-.502-1.52-1.241-3.072-1.579" stroke="#2E186A" stroke-width=".582" stroke-linecap="round" stroke-linejoin="round"></path>
    <path d="M92.815 105.285c1.365.369 2.493 1.018 2.64 1.472.666.609.536 3.869.292 6.172a6.264 6.264 0 001.27-5.783 6.26 6.26 0 00-4.118-4.253m-2.471-.271a6.252 6.252 0 00-5.126 3.624 6.256 6.256 0 00.596 6.249c.763-1.127 1.277-3.478 1.277-3.478l.431.524c-.086-.88-.15-1.513-.15-1.513.07-2.14 1.419-2.922 2.99-3.02" fill="#2E186A"></path>
    <path d="M88.54 99.576s-7.674.129-7.846 7.99m-1.416-4.212s.136-5.481 6.18-5.31" stroke="#2E186A" stroke-width=".582" stroke-linecap="round" stroke-linejoin="round"></path>
    <path d="M77.487 80.508c0 .115 0 .224.008.33-.954 5.215-1.798 4.574-4.035 8.694-.017.03-.032.062-.048.097 3.064-1.2 5.472-2.761 6.852-5.434 0-.004-1.799-2.545-2.777-3.687zm-33.342-.421a37.001 37.001 0 00-5.162 3.419c1.641.94 13.829 7.746 19.483 6.283-3.956-.002-11.952-4.672-14.32-9.702z" fill="#2E186A"></path>
    <path d="M58.372 59.276c.556.679 1.188 4.347 1.413 6.046 0 0 4.31-.926 10.27-.347 0 0 3.181.42 4.454.94.723-3.043 1.373-7.035 1.287-10.846-.126-5.667-7.026-6.016-8.036-6.042-10.84-.328-11.264 10.114-11.264 10.114v.038l1.876.097zm-2.707 1.518c-.963.028-3.233.377-3.001 3.056.206 2.378 2.386 2.37 3.67 2.153" stroke="#2E186A" stroke-width=".582" stroke-linecap="round" stroke-linejoin="round"></path>
    <path d="M58.371 59.275c.556.68 1.189 4.348 1.414 6.047 0 0 4.309-.926 10.27-.347 0 0 3.236.428 4.487.954 0 0-.933 5.821-3.903 8.564-2.969 2.742-8.436 1.27-10.842-.845-2.405-2.114-2.739-3.032-3.125-5.05-.386-2.018-1.17-9.47-1.17-9.47l2.87.147z" stroke="#2E186A" stroke-width=".582" stroke-linecap="round" stroke-linejoin="round"></path>
    <path d="M55.545 60.174s-1.186-3.003-1.296-5.9c-.103-2.723 1.65-5.204 4.288-5.887 2.209-.572 3.549.492 3.549.492s-1.41-4.066 2.44-6.637a5.953 5.953 0 014.631-.85c3.892.898 4.438 4.449 4.438 4.449s5.733-6.86 13.412-.582c.776.633 1.493 2.11 1.788 3.066 1.79 5.795-8.8 10.118-13.767 9.633-5.453-.532-8.405-2.044-9.865-3.696 1.127 1.024-1.914 8.735-9.618 5.912z" fill="#2E186A"></path>
    <path d="M70.31 62.72l.015 5.169-1.747-.661" stroke="#2E186A" stroke-width=".776" stroke-linecap="round" stroke-linejoin="round"></path>
    <path d="M72.816 62.916c.05-.447-.143-.835-.432-.868-.289-.032-.563.304-.613.751-.05.447.144.835.432.867.289.033.563-.303.613-.75zm-5.004-.629c.05-.446-.143-.835-.432-.867-.289-.032-.563.304-.613.75-.05.447.144.836.432.868.29.032.564-.304.613-.75z" fill="#2E186A"></path>
    <path d="M65.068 59.272a2.41 2.41 0 012.369-.639m4.378.327s1.492-.214 1.722 1.011m-7.47 8.949s.436 1.515 1.826 1.09" stroke="#2E186A" stroke-width=".776" stroke-linecap="round" stroke-linejoin="round"></path>
    <path d="M64.156 114.724h34.272a1.068 1.068 0 011.067 1.067v2.62H63.059v-2.589a1.096 1.096 0 011.097-1.098z" fill="#2E186A"></path>
    <path d="M.288 118.467h159.418" stroke="#2E186A" stroke-width=".582" stroke-linecap="round" stroke-linejoin="round"></path>
    <path d="M119.091 87.349c-.964.033-1.375.239-1.375 1.076 0 1.24 1.261 18.139 1.273 18.308.011.17.733 10.3.733 10.3a1.288 1.288 0 001.281 1.204l1.403-.048-3.367-30.642a.29.29 0 01.052-.198zm7.153 9.974h-.02a2.583 2.583 0 00-1.867.762 2.176 2.176 0 00-.612 1.628c.065 1.347 1.306 2.45 2.766 2.461h.022a2.57 2.57 0 001.867-.762 2.18 2.18 0 00.612-1.628c-.063-1.344-1.306-2.448-2.768-2.46z" fill="#2E186A"></path>
    <path d="M135.306 116.622l-2.406-10.001-3.955-18.436c-.194-.893-1.053-.856-1.151-.843-.076.01-.123 0-.208 0h-8.024a.29.29 0 01.056.14l3.374 30.703h11.061a1.29 1.29 0 001.247-.995c.045-.187.047-.381.006-.568zm-6.486-14.804a3.162 3.162 0 01-2.287.939h-.025c-1.764-.012-3.264-1.365-3.345-3.015a2.748 2.748 0 01.776-2.059 3.17 3.17 0 012.287-.94h.026c1.764.012 3.264 1.365 3.343 3.014a2.748 2.748 0 01-.775 2.061z" fill="#2E186A"></path>
    <path d="M102.645 114.724h30.661v3.461h-31.758v-2.368a1.096 1.096 0 011.097-1.093zm45.446-47.035c0-.915-.719-1.65-1.595-1.65l-52.22.162c-.033 0-.065 0-.097.005l-4.155.013c-.873 0-1.582.746-1.578 1.66l.194 38.296c0 .914.718 1.649 1.595 1.649l3.792-.087c.149.046.304.07.46.07l23.957-.574a19.545 19.545 0 01-.039-.455c-.052-.696-1.275-17.09-1.275-18.352 0-1.664 1.384-1.664 2.3-1.664h8.418c.039 0 .078.004.116.013.545.018 1.339.32 1.547 1.286.247 1.154 3.778 17.64 4.03 18.811l13.164-.315c.873 0 1.582-.746 1.577-1.66l-.191-37.208zM93.42 107.397a.291.291 0 01-.291.259h-.033c-1.244-.139-1.934-1.067-1.94-2.619 0-.88-.18-34.707-.189-36.52-.009-1.658 1.368-2.134 2.097-2.158a.292.292 0 01.018.582c-.158.006-1.54.097-1.533 1.575l.188 36.519c.007 1.268.473 1.94 1.425 2.037a.284.284 0 01.11.035.289.289 0 01.149.29z" fill="#2E186A"></path>
    <path d="M117.687 51.904h-.125a.485.485 0 00-.485.485v.53c0 .267.217.485.485.485h.125a.486.486 0 00.486-.486v-.53a.486.486 0 00-.486-.484z" fill="#FE7624"></path>
    <path d="M116.172 51.904h-6.561a.485.485 0 00-.485.485v.53c0 .267.217.485.485.485h6.561a.485.485 0 00.485-.486v-.53a.485.485 0 00-.485-.484zm.681 6.968h-7.242a.485.485 0 00-.485.485v.53c0 .268.217.485.485.485h7.242a.486.486 0 00.486-.485v-.53a.486.486 0 00-.486-.485z" fill="#2E186A"></path>
    <path d="M123.455 56.552h-11.768a.485.485 0 00-.485.485v.53c0 .268.217.485.485.485h11.768a.485.485 0 00.485-.485v-.53a.485.485 0 00-.485-.485zm7.593 0h-5.911a.486.486 0 00-.485.485v.53c0 .268.218.485.485.485h5.911a.486.486 0 00.485-.485v-.53a.486.486 0 00-.485-.485z" fill="#FE7624"></path>
    <path d="M133.377 54.232h-.125a.485.485 0 00-.485.485v.53c0 .268.217.485.485.485h.125a.485.485 0 00.485-.485v-.53a.485.485 0 00-.485-.485zm-11.564-.004h-12.202a.485.485 0 00-.485.485v.53c0 .268.217.485.485.485h12.202a.486.486 0 00.485-.485v-.53a.486.486 0 00-.485-.485zm3.89-2.324h-6.562a.485.485 0 00-.485.485v.53c0 .267.217.485.485.485h6.562a.486.486 0 00.485-.486v-.53a.486.486 0 00-.485-.484z" fill="#2E186A"></path>
    <path d="M131.692 54.224h-8.32a.485.485 0 00-.485.485v.54c0 .267.217.484.485.484h8.32a.485.485 0 00.485-.485v-.54a.485.485 0 00-.485-.484z" fill="#FE7624"></path>
    <path d="M32 112.534a2.827 2.827 0 100-5.654 2.827 2.827 0 000 5.654z" stroke="#2E186A" stroke-width=".582" stroke-linecap="round" stroke-linejoin="round"></path>
    <path d="M32.734 105.87v9.442a2.91 2.91 0 002.911 2.911h5.977a2.91 2.91 0 002.911-2.911v-9.442H32.734zm4.773 6.702a.217.217 0 01.11.188.214.214 0 01-.215.214.204.204 0 01-.107-.027l-2.135-1.283a.217.217 0 01-.085-.307.227.227 0 01.085-.081l2.135-1.282a.225.225 0 01.19-.011.21.21 0 01.069.047.214.214 0 01-.047.339l-1.836 1.1 1.836 1.103zm2.668-3.156l-1.718 4.294a.223.223 0 01-.044.059.202.202 0 01-.152.064.212.212 0 01-.152-.063.211.211 0 01-.044-.243l1.714-4.293a.22.22 0 01.155-.119.216.216 0 01.255.21.24.24 0 01-.014.091zm2.903 2.248l-2.135 1.281a.216.216 0 01-.322-.187.217.217 0 01.11-.188l1.835-1.101-1.835-1.1a.212.212 0 01-.08-.079.212.212 0 01.033-.26.216.216 0 01.259-.036l2.135 1.282a.225.225 0 01.117.194.222.222 0 01-.117.194z" fill="#2E186A"></path>
  </g>
  <defs>
    <clipPath id="clip0_10436_520">
      <path fill="#fff" transform="translate(0 41.241)" d="M0 0h160v77.517H0z"></path>
    </clipPath>
  </defs>
</svg>
