<?xml version="1.0" encoding="UTF-8"?>
<svg xmlns="http://www.w3.org/2000/svg" width="160" height="160" fill="none">
  <path fill="#fff" d="M0 0h160v160H0z"></path>
  <g clip-path="url(#clip0_10436_607)">
    <path d="M115.389 40.356H44.883a2.972 2.972 0 00-2.972 2.972v73.121a2.972 2.972 0 002.972 2.972h70.506a2.972 2.972 0 002.972-2.972V43.328a2.972 2.972 0 00-2.972-2.972z" fill="#FEBA91"></path>
    <path d="M45.541 116.378V43.485c0-1.528 1.19-2.769 2.657-2.769m23.116-.21v67.473" stroke="#fff" stroke-width=".609" stroke-linecap="round" stroke-linejoin="round"></path>
    <path d="M87.039 45.266h-.547a.507.507 0 00-.508.508v1.076c0 .28.228.508.508.508h.547c.28 0 .507-.227.507-.508v-1.076a.507.507 0 00-.507-.508zm-2.162 0h-9.725a.507.507 0 00-.508.508v1.076c0 .28.228.508.508.508h9.725c.28 0 .508-.227.508-.508v-1.076a.508.508 0 00-.508-.508zm.973 9.717H75.152a.507.507 0 00-.508.508v1.077c0 .28.228.507.508.507H85.85c.28 0 .507-.227.507-.507V55.49a.507.507 0 00-.507-.508zm9.415-3.234H78.114a.508.508 0 00-.508.507v1.077c0 .28.228.508.508.508h17.15a.508.508 0 00.508-.508v-1.077a.507.507 0 00-.507-.507zm9.26 0h-7.23a.507.507 0 00-.507.507v1.077c0 .28.227.508.508.508h7.229c.28 0 .508-.228.508-.508v-1.077a.508.508 0 00-.508-.507zm7.83 11.788h-.547a.507.507 0 00-.507.507v1.077c0 .28.227.508.507.508h.547a.507.507 0 00.508-.508v-1.077a.507.507 0 00-.508-.507zm-3.293 3.293h-.547a.507.507 0 00-.507.508v1.076c0 .28.227.508.507.508h.547a.507.507 0 00.508-.508v-1.076a.507.507 0 00-.508-.508zm-16.14-18.323h-17.77a.507.507 0 00-.508.507v1.077c0 .28.228.508.508.508h17.77c.28 0 .508-.227.508-.508v-1.077a.507.507 0 00-.508-.507zm5.548-3.241h-9.726a.507.507 0 00-.508.508v1.076c0 .28.227.508.508.508h9.725c.28 0 .508-.227.508-.508v-1.076a.508.508 0 00-.508-.508zm7.745 3.234H94.776a.507.507 0 00-.507.508v1.09c0 .28.227.508.507.508h11.439c.28 0 .507-.227.507-.508v-1.09a.507.507 0 00-.507-.507zM84.877 63.52h-9.725a.507.507 0 00-.508.507v1.077c0 .28.228.507.508.507h9.725c.28 0 .508-.227.508-.507v-1.077a.508.508 0 00-.508-.508zm21.216 6.481h-8.797a.507.507 0 00-.508.508v1.077c0 .28.227.507.508.507h8.797a.507.507 0 00.508-.507v-1.077a.507.507 0 00-.508-.508zM92.922 66.76h-17.77a.507.507 0 00-.508.508v1.077c0 .28.228.507.508.507h17.77c.28 0 .508-.227.508-.507v-1.077a.507.507 0 00-.508-.508zm5.547-3.24H86.492a.507.507 0 00-.508.507v1.077c0 .28.228.507.508.507h11.977c.28 0 .507-.227.507-.507v-1.077a.507.507 0 00-.507-.508zm11.568 0h-9.726a.508.508 0 00-.507.507v1.077c0 .28.227.507.507.507h9.726c.28 0 .507-.227.507-.507v-1.077a.507.507 0 00-.507-.508zm-22.998-3.136h-.547a.507.507 0 00-.508.508v1.077c0 .28.228.507.508.507h.547c.28 0 .507-.227.507-.507v-1.077a.507.507 0 00-.507-.508zm-2.162 0h-9.725a.507.507 0 00-.508.508v1.077c0 .28.228.507.508.507h9.725c.28 0 .508-.227.508-.507v-1.077a.508.508 0 00-.508-.508zm13.593 0h-9.726a.507.507 0 00-.508.508v1.077c0 .28.227.507.508.507h9.725c.28 0 .508-.227.508-.507v-1.077a.508.508 0 00-.508-.508zm8.542 6.37H94.776a.507.507 0 00-.507.508v1.09c0 .28.227.507.507.507h12.236c.28 0 .507-.227.507-.507v-1.09a.507.507 0 00-.507-.508zM63.06 64.69H51.71a.507.507 0 00-.507.508v1.071c0 .28.227.507.508.507H63.06c.28 0 .508-.227.508-.507v-1.07a.507.507 0 00-.508-.508zm-9.33-3.045h-2.02a.507.507 0 00-.507.507v1.07c0 .281.227.508.508.508h2.02c.28 0 .507-.227.507-.507v-1.071a.507.507 0 00-.508-.508zm3.956-3.571H51.71a.507.507 0 00-.508.508v1.07c0 .28.227.508.508.508h5.975c.28 0 .507-.227.507-.508v-1.07a.507.507 0 00-.507-.508zm2.236-3.124H51.71a.507.507 0 00-.508.507v1.071c0 .28.227.508.508.508h8.21a.507.507 0 00.508-.508v-1.07a.507.507 0 00-.507-.508zm-2.236-3.177H51.71a.508.508 0 00-.508.507v1.071c0 .28.227.508.508.508h5.975c.28 0 .507-.227.507-.508v-1.07a.508.508 0 00-.507-.508zm-2.408-3.362h-3.567a.507.507 0 00-.508.508v1.07c0 .28.227.508.508.508h3.567c.28 0 .508-.227.508-.507v-1.071a.507.507 0 00-.508-.508zm2.549 0h-.861a.335.335 0 00-.335.335v1.416c0 .185.15.335.335.335h.86c.185 0 .335-.15.335-.335v-1.416a.335.335 0 00-.334-.335zm2.325 3.321h-.861a.335.335 0 00-.335.335v1.416c0 .185.15.335.335.335h.86c.186 0 .336-.15.336-.335v-1.416a.335.335 0 00-.335-.335zm2.479 3.221h-.86a.335.335 0 00-.336.335v1.416c0 .185.15.335.335.335h.861c.185 0 .335-.15.335-.335v-1.416a.335.335 0 00-.335-.335zM60.23 58.1h-.86a.335.335 0 00-.336.335v1.416c0 .185.15.335.335.335h.86c.186 0 .336-.15.336-.335v-1.416a.335.335 0 00-.335-.335zm-4.053 3.55h-.86a.335.335 0 00-.336.336v1.416c0 .184.15.334.335.334h.861c.185 0 .335-.15.335-.334v-1.416a.335.335 0 00-.335-.335zm9.13 3.036h-.86a.335.335 0 00-.336.335v1.416c0 .185.15.335.335.335h.861c.185 0 .335-.15.335-.335v-1.415a.335.335 0 00-.335-.336zM59.02 45.048h-7.437a.507.507 0 00-.508.507v1.071c0 .28.227.508.508.508h7.437c.28 0 .508-.228.508-.508v-1.07a.507.507 0 00-.508-.508z" fill="#fff"></path>
    <path d="M44.199 93.224H13.917v26.119h30.282v-26.12z" fill="#fff" stroke="#2E186A" stroke-width=".609" stroke-linecap="round" stroke-linejoin="round"></path>
    <path d="M54.368 68.36s1.901-.514 2.98-1.546c.644-.615 1.47-1.445 1.455-1.716-.028-.508-1.091.272-1.264.38" fill="#fff"></path>
    <path d="M54.368 68.36s1.901-.514 2.98-1.546c.644-.615 1.47-1.445 1.455-1.716-.028-.508-1.091.272-1.264.38" stroke="#2E186A" stroke-width=".609" stroke-linecap="round" stroke-linejoin="round"></path>
    <path d="M55.4 66.679s.9-.78 1.218-1.427c.318-.648.532-1.147.423-1.234-.11-.088-.69.069-.925.452-.259.651-1.313 1.53-1.313 1.53.128-.05.776-.767 1.072-1.217.295-.45.31-1.14-.61-.364 0 0-.969.863-1.342 1.121 0 0-1.694.636-2.117 1.357-.285.486-2.524 4.21-4.29 6.64-1.086 1.137-3.14 8.099.203 7.328.697-.139 1.479-.806 1.712-1.395l4.441-10.875c1.025-.425 1.718-.879 2.163-1.278.575-.517 2.192-2.667 2.178-2.896-.037-.61-1.031-.354-1.545.755" fill="#fff"></path>
    <path d="M55.4 66.679s.9-.78 1.218-1.427c.318-.648.532-1.147.423-1.234-.11-.088-.69.069-.925.452-.259.651-1.313 1.53-1.313 1.53.128-.05.776-.767 1.072-1.217.295-.45.31-1.14-.61-.364 0 0-.969.863-1.342 1.121 0 0-1.694.636-2.117 1.357-.285.486-2.524 4.21-4.29 6.64-1.086 1.137-3.14 8.099.203 7.328.697-.139 1.479-.806 1.712-1.395l4.441-10.875c1.025-.425 1.718-.879 2.163-1.278.575-.517 2.192-2.667 2.178-2.896-.037-.61-1.031-.354-1.545.755" stroke="#2E186A" stroke-width=".609" stroke-linecap="round" stroke-linejoin="round"></path>
    <path d="M47.653 72.656l2.467-4.486 3.883.919-3.33 8.26-3.02-4.693z" fill="#5D21D1"></path>
    <path d="M31.805 105.517l.125 14.024h2.091l.124-4.371s.848 4.276 3.769 4.466c2.92.19 5.444-.609 5.425-.721-.01-.058.087-.914.184-1.752.086-.727-.608-1.438-1.358-1.395-1.122.066-2.595-.023-3.489-.768-1.596-1.331-1.394-11.003-1.394-11.003l-5.477 1.52z" fill="#2E186A"></path>
    <path d="M35.383 105.517l2.017 14.024h2.09l.084-2.501s.888 2.406 3.809 2.596c2.92.19 5.444-.609 5.424-.721-.01-.058.087-.914.186-1.752.085-.727-.61-1.438-1.358-1.395-1.123.066-2.084-1.466-2.977-2.21-1.597-1.331-1.907-9.561-1.907-9.561l-7.368 1.52z" fill="#2E186A"></path>
    <path d="M48.49 91.142c-.745-1.712-9.86-6.769-9.86-6.769s4.03-10.82 1.752-14.007c-1.98-2.676-5.552-2.544-5.552-2.544l-6.52-.24v-.029h-1.063c-1.15 0-2.715 1.224-2.886 2.55-.315 2.437-1.259 5.793-1.91 8.595-1.522 4.67-3.06 11.634.03 14.546.025.036 7.91 0 7.91 0l.01 21.672h15.726s3.11-22.062 2.364-23.774z" fill="#5D21D1"></path>
    <path d="M31.192 67.33c-.582.072-1.166-.615-1.31-1.55a2.29 2.29 0 01.162-1.33m9.204 2.597c-.583.072-1.166-.616-1.31-1.55a2.29 2.29 0 01.158-1.33" stroke="#FE7624" stroke-width=".609" stroke-linecap="round" stroke-linejoin="round"></path>
    <path d="M30.544 57.7c1.24-.913 2.062-5.715-1.303-8.931-3.406-3.258-6.242.071-6.872.949-.63.878-1.104 3.29 1.841 5.568 2.946 2.279 4.92 3.461 6.334 2.415z" fill="#2E186A"></path>
    <path d="M32.344 59.826l-.077.05a1.06 1.06 0 01-1.42-.283l-.905-1.268a.948.948 0 01.246-1.361l.077-.05a1.058 1.058 0 011.42.284l.905 1.273a.944.944 0 01-.246 1.355z" fill="#FE7624"></path>
    <path d="M31.73 63.841c.26-.544.007-1.206-.565-1.478-.572-.273-1.246-.053-1.505.491-.26.544-.006 1.206.566 1.478.572.273 1.245.053 1.505-.49zm7.875-.368c.26-.544.007-1.206-.565-1.479-.572-.272-1.246-.052-1.505.492-.26.544-.006 1.205.566 1.478.572.273 1.245.053 1.505-.491z" fill="#fff" stroke="#2E186A" stroke-width=".609" stroke-linecap="round" stroke-linejoin="round"></path>
    <path d="M35.353 66.59l.063 1.625 1.363.304c.077.222.161 4.06-3.35 3.586-2.303-.313-3.38-2.375-3.997-4.263l1.954.137.01-4.583 3.957 3.195z" fill="#fff" stroke="#2E186A" stroke-width=".609" stroke-linecap="round" stroke-linejoin="round"></path>
    <path d="M35.52 67.508c1.968-.362 3.187-2.705 2.722-5.234-.464-2.529-2.436-4.286-4.404-3.924-1.968.361-3.186 2.704-2.721 5.233.464 2.53 2.436 4.286 4.404 3.925z" fill="#fff" stroke="#2E186A" stroke-width=".609" stroke-linecap="round" stroke-linejoin="round"></path>
    <path d="M35.008 64.033l.69-.022a.11.11 0 00.102-.14l-.498-1.881m-2.214-.916s.609-.548 1.116-.091m1.676-.076s.782-.293 1.097.304" stroke="#2E186A" stroke-width=".609" stroke-linecap="round" stroke-linejoin="round"></path>
    <path d="M34.4 62.62c.008-.227-.11-.415-.262-.42-.153-.005-.282.175-.29.402-.007.228.11.416.263.421.152.005.282-.175.29-.403zm2.33.505c.151-.01.26-.205.244-.433-.016-.228-.153-.404-.304-.393-.152.011-.261.205-.245.433.017.228.153.404.305.393z" fill="#2E186A"></path>
    <path d="M38.843 63.53c.59-.092 1.082.69 1.228 1.637.146.946-.213 1.785-.803 1.877h-.02m-8.563-3.141c.588-.091 1.184.602 1.33 1.547.146.945-.213 1.787-.802 1.877h-.02" stroke="#FE7624" stroke-width=".609" stroke-linecap="round" stroke-linejoin="round"></path>
    <path d="M35.142 65.395s-1.576.977-1.656-1.145l1.656 1.145z" stroke="#2E186A" stroke-width=".609" stroke-linecap="round" stroke-linejoin="round"></path>
    <path d="M33.371 57.268l-.008.01c-1.178.173-2.495.71-3.227 1.5-1.299 1.397-.702 4.394.62 4.598.108.017.219.026.33.032a5.912 5.912 0 01-.066-1.047c1.803-.674 1.8-3.375 1.796-3.6.383.304.884.825.754 1.397l3.984.252a5.78 5.78 0 01.745 2.266v.032c.374-.533.39-1.365.076-2.247l1.348.086s1.24-4.555-6.352-3.279z" fill="#2E186A"></path>
    <path d="M37.441 77.714l-8.481-.02.472-3.66m-7.072 5.041c-.377 1.485.858 3.27 2.389 3.303l12.31-.006m-8.021-4.664s-1.272-.564-2.19.8m2.164-1.234s-1.18-1.062-2.662.158" stroke="#fff" stroke-width=".609" stroke-linecap="round" stroke-linejoin="round"></path>
    <path d="M27.231 80.966l6.226.065 2.05-9.643a.432.432 0 01.423-.362l15.156.234c.277 0 .481.294.418.593L49.576 82.14c-.134.635-.938 1.13-1.511 1.117-3.726-.061-18.73-.275-19.168-.282-2.01-.03-1.666-2.008-1.666-2.008z" fill="#FE7624"></path>
    <path d="M18.917 119.04V83.017h34.477v36.023" stroke="#2E186A" stroke-width=".609" stroke-linecap="round" stroke-linejoin="round"></path>
    <path d="M43.643 119.278h-2.286c-.224.017-1.398-.029-.392-.663.203-.087 1.887-1.168 2.56-1.29.673-.122 3.233-.123 3.29-.123.055 0 .943-2.537.962-2.675l3.632.163c-.194.484-1.325 4.066-2.165 4.389-.84.323-5.613.153-5.613.153s.086-.71 1.022-.812c.935-.101 1.34-.101 1.34-.101" fill="#fff"></path>
    <path d="M43.643 119.278h-2.286c-.224.017-1.398-.029-.392-.663.203-.087 1.887-1.168 2.56-1.29.673-.122 3.233-.123 3.29-.123.055 0 .943-2.537.962-2.675l3.632.163c-.194.484-1.325 4.066-2.165 4.389-.84.323-5.613.153-5.613.153s.086-.71 1.022-.812c.935-.101 1.34-.101 1.34-.101" stroke="#2E186A" stroke-width=".609" stroke-linecap="round" stroke-linejoin="round"></path>
    <path d="M80.672 94.774c-1.161-1.504-5.933-7.196-5.933-7.196l-3.978 3.41.69.941c-3.34-.802-6.661-1.191-7.496-.833l.261.702c-3.552-.938-9.121-1.857-10.267 1.174-1.213 2.254-6.667 22.382-6.667 22.382l7.019.186.71-2.79c.179 1.813.385 3.458.627 4.742.33 1.757 3.931 2.16 5.719 2.138l4.626-.058 6.902-8.264-3.512-11.547c2.774.525 7.253 1.17 9.472.394a2.47 2.47 0 00.32-.038c2.388-.455 3.352-2.754 1.507-5.343z" fill="#2E186A"></path>
    <path d="M58.753 91.33l2.327-4.637 4.02 2.56-.525 2.19c.336 1.828-1.776 3.1-3.234 1.943l-2.588-2.056z" fill="#fff" stroke="#2E186A" stroke-width=".609" stroke-linecap="round" stroke-linejoin="round"></path>
    <path d="M61.41 80.26s1.41 5.448 4.797 4.105c0 0 1.437-.624 1.474-1.506 0 0-1.142.29-1.42-.554 0 0 2.456.59 3.056-1.32 0 0-2.233.684-2.95-.76-.716-1.443-5.138-1.366-4.956.034z" fill="#2E186A"></path>
    <path d="M59.173 85.367s-2.317-3.561 1.262-5.96c.333-.224 2.639-1.707 4.015.145.914 1.236 1.642 2.7 2.124 3.872 0 .007.943 2.2.626 3.797-.318 1.596-2.275 2.334-3.553 2.195-1.277-.139-1.6-.371-2.2-.95-.599-.58-2.274-3.09-2.274-3.09v-.009z" fill="#fff" stroke="#2E186A" stroke-width=".609" stroke-linecap="round" stroke-linejoin="round"></path>
    <path d="M64.595 83.156l1.175 1.592-.676.416" stroke="#2E186A" stroke-width=".609" stroke-linecap="round" stroke-linejoin="round"></path>
    <path d="M65.414 82.715c.104-.058.115-.234.026-.394-.088-.16-.244-.242-.348-.184-.103.057-.115.233-.026.393.09.16.245.242.348.185zm-1.494 1.296c.111-.037.156-.208.098-.381-.057-.174-.195-.284-.307-.247-.112.037-.157.208-.1.381.058.174.196.284.308.247z" fill="#2E186A"></path>
    <path d="M62.06 83.175a.977.977 0 01.675-.733m1.513-1.166s.536-.604 1.015-.33" stroke="#2E186A" stroke-width=".609" stroke-linecap="round" stroke-linejoin="round"></path>
    <path d="M60.391 81.252s4.088 4.854.642 7.09c0 0-1.513.914-2.347.37 0 0 1.015-.858.415-1.663 0 0-1.06 2.639-3.211 1.946 0 0 2.087-1.61 1.227-3.208-.861-1.597 2.108-5.616 3.274-4.535z" fill="#2E186A"></path>
    <path d="M64.773 79.35s-3.02-3.981-6.856-.52c-2.209 1.992-1.97 4.142-1.37 5.609l-1.827 1.928a1.043 1.043 0 001.51 1.436l8.543-8.453z" fill="#FE7624"></path>
    <path d="M64.713 86.231l.894-.245" stroke="#2E186A" stroke-width=".609" stroke-linecap="round" stroke-linejoin="round"></path>
    <path d="M74.587 89.452c-.963-.62-1.785-1.227-2.287-1.754-.432-.414-.79-.737-1.084-.989a3.325 3.325 0 00-2.537-.78c-.703.079-1.516.197-1.896.348-.742.296-3.176 1.225-3.019 1.61.11.273 1.45.058 2.137-.079l1.376 1.646s.609-.203.96-.182c.728.043 1.545.295 1.94.053a20.698 20.698 0 001.714 2.334" fill="#fff"></path>
    <path d="M74.587 89.452c-.963-.62-1.785-1.227-2.287-1.754-.432-.414-.79-.737-1.084-.989a3.325 3.325 0 00-2.537-.78c-.703.079-1.516.197-1.896.348-.742.296-3.176 1.225-3.019 1.61.11.273 1.45.058 2.137-.079l1.376 1.646s.609-.203.96-.182c.728.043 1.545.295 1.94.053a20.698 20.698 0 001.714 2.334" stroke="#2E186A" stroke-width=".609" stroke-linecap="round" stroke-linejoin="round"></path>
    <path d="M67.102 86.816s-1.6 1.015-1.457 1.647c.142.633.638.436.638.436" fill="#fff"></path>
    <path d="M67.102 86.816s-1.6 1.015-1.457 1.647c.142.633.638.436.638.436" stroke="#2E186A" stroke-width=".609" stroke-linecap="round" stroke-linejoin="round"></path>
    <path d="M67.488 87.468s-1.346 1.027-1.159 1.645c.188.618.67.386.67.386" fill="#fff"></path>
    <path d="M67.488 87.468s-1.346 1.027-1.159 1.645c.188.618.67.386.67.386" stroke="#2E186A" stroke-width=".609" stroke-linecap="round" stroke-linejoin="round"></path>
    <path d="M67.986 88.261s-1.6 1.268-.612 1.572c.987.305 1.3.076 1.3.076s.344-.544-.68-.656" fill="#fff"></path>
    <path d="M67.986 88.261s-1.6 1.268-.612 1.572c.987.305 1.3.076 1.3.076s.344-.544-.68-.656" stroke="#2E186A" stroke-width=".609" stroke-linecap="round" stroke-linejoin="round"></path>
    <path d="M66.348 111.593s11.63-12.3 14.164-15.153c2.533-2.852 7.198-2.385 9.052-.05 1.854 2.334 11.362 17.286 11.362 17.286l-10.883 2.577-3.946-11.22-6.138 11.476-13.611-4.916z" fill="#fff" stroke="#2E186A" stroke-width=".609" stroke-linecap="round" stroke-linejoin="round"></path>
    <path d="M66.348 111.595l17.805-2.524a12.358 12.358 0 012.3.011l17.015 2.11-.045 8.263-42.07.034 4.995-7.894z" fill="#fff" stroke="#2E186A" stroke-width=".609" stroke-linecap="round" stroke-linejoin="round"></path>
    <path d="M84.716 95.025a.68.68 0 00-.801.53l-2.436 12.469-12.391 1.676.037.273a.968.968 0 001.09.83l11.802-1.596a.968.968 0 00.83-1.09l2.398-12.288a.678.678 0 00-.529-.804zm55.21 15.039l-.332 4.717s4.973 2.468 4.529 5.012l-10.494-.038.183-9.092 6.114-.599z" fill="#FE7624"></path>
    <path d="M129.984 70.618c4.65.76 4.504 2.752 6.075 5.74 1.572 2.986 5.767 38.444 5.767 38.444l-12.316.173-.711-25.818-4.821 23.092-14.495.132s12.393-34.27 13.462-36.546c1.069-2.276 2.262-3.2 3.835-3.627 1.572-.426 3.204-1.59 3.204-1.59z" fill="#5D21D1"></path>
    <path d="M146.192 71.045c-2.453-4.397-7.612-11.696-9.96-12.477a1.918 1.918 0 00-.158-.051l-2.301-.44c-1.292 1.686-3.903 3.441-6.172 2.922-3.591-.82-2.108-4.02-1.983-4.242l1.143.25-.133-.298-.873-.166c-.881-.215-2.03-.156-3.46.325-3.588 1.205-11.941 4.066-11.941 4.066l3.566 5.08s1.178-.594 4.973-1.839c.755-.246 1.582-.486 2.419-.733.145 1.719 1.036 3.716 3.235 5.946 1.116 1.392 5.556 1.976 5.556 1.976 1.307.372 4.002-1.718 4.712-2.904.232-.384.476-.826.72-1.304 2.544 3.365 6.563 8.335 6.563 8.335l1.062-.275c2.428-1.03 4.214-2.06 3.032-4.171z" fill="#2E186A"></path>
    <path d="M130.663 52.556l.334.22s2.009 1.092 2.639-.937c.479-1.54-.997-2.023-1.738-2.167" fill="#fff"></path>
    <path d="M130.663 52.556l.334.22s2.009 1.092 2.639-.937c.479-1.54-.997-2.023-1.738-2.167" stroke="#2E186A" stroke-width=".609" stroke-linecap="round" stroke-linejoin="round"></path>
    <path d="M125.994 55.3l.769 1.707-1.144-.25c-.125.222-1.607 3.421 1.984 4.242 2.356.538 5.083-1.375 6.316-3.117l-1.992-.362-1.624-3.915-4.309 1.695z" fill="#fff" stroke="#2E186A" stroke-width=".609" stroke-linecap="round" stroke-linejoin="round"></path>
    <path d="M134.381 58.291c1.555-.587 2.402-2.16 1.891-3.514-.511-1.353-2.186-1.975-3.742-1.388-1.555.588-2.402 2.16-1.891 3.514.511 1.354 2.186 1.975 3.742 1.388z" fill="#2E186A"></path>
    <path d="M137.316 60.532c1.213-.458 1.874-1.685 1.475-2.741-.398-1.057-1.705-1.542-2.919-1.084-1.213.459-1.874 1.686-1.475 2.742.398 1.056 1.705 1.541 2.919 1.083z" fill="#2E186A"></path>
    <path d="M139.885 62.628c1.083-.409 1.673-1.504 1.318-2.447-.356-.942-1.523-1.374-2.606-.965-1.084.408-1.674 1.504-1.318 2.446.356.943 1.522 1.375 2.606.966z" fill="#2E186A"></path>
    <path d="M142.644 63.211c.269.789-.246 1.684-1.15 2-.903.315-1.854-.068-2.123-.857-.269-.789.203-1.725 1.111-2.039.909-.314 1.894.108 2.162.896z" fill="#2E186A"></path>
    <path d="M144.31 65.345c.024.85.449 1.195.857 1.331a.22.22 0 01.114.322.217.217 0 01-.097.084c-1.077.429-3.012.943-3.618-.564-.286-.71.061-1.57.855-1.95.795-.382 1.868.01 1.889.777z" fill="#2E186A"></path>
    <path d="M135.929 56.712l-1.542 1.589m4.364.875l-1.387 1.255m3.097 1.934l-.482.328m2.26 1.917l-.464.354" stroke="#FE7624" stroke-width=".812" stroke-linecap="round" stroke-linejoin="round"></path>
    <path d="M123.47 48.728c-.274.93-1.056 5.347 1.776 6.443 2.831 1.095 5.489-1.104 6.495-3.823 1.007-2.719.377-5.38-1.4-6.114-1.777-.735-4.886-3.245-6.871 3.494z" fill="#fff" stroke="#2E186A" stroke-width=".609" stroke-linecap="round" stroke-linejoin="round"></path>
    <path d="M126.363 52.313a2.012 2.012 0 01-1.257-.18.178.178 0 00-.163.003.19.19 0 00-.064.055.183.183 0 00-.03.079c-.06.348-.044.957.72 1.14.798.192.966-.507 1-.899a.173.173 0 00-.01-.08.175.175 0 00-.045-.07.18.18 0 00-.151-.048z" fill="#2E186A"></path>
    <path d="M125.873 51.056l-.877-.23 1.484-3.396m1.939 1.07s-.438-.835-1.116-.527m-1.221-1.407s-.548-.765-1.179-.363" stroke="#2E186A" stroke-width=".609" stroke-linecap="round" stroke-linejoin="round"></path>
    <path d="M127.355 50.057c.053-.257-.035-.493-.198-.527-.162-.033-.337.149-.39.406-.053.258.036.493.198.527.163.033.337-.148.39-.406zm-2.892-.551c.053-.258-.036-.493-.198-.527-.163-.033-.338.148-.391.406-.053.257.036.493.199.527.162.033.337-.148.39-.406z" fill="#2E186A"></path>
    <path d="M129.96 49.852c.238-1.404-.411-2.685-1.449-2.861-1.039-.177-2.074.819-2.312 2.223s.41 2.686 1.449 2.862c1.038.176 2.073-.82 2.312-2.224zm-4.947-.952c.239-1.405-.41-2.686-1.449-2.862-1.038-.176-2.073.82-2.311 2.224-.239 1.404.41 2.685 1.449 2.861 1.038.176 2.073-.82 2.311-2.223zm.117-.625l1.171.222m3.744.471l2.651.893" stroke="#FE7624" stroke-width=".457" stroke-linecap="round" stroke-linejoin="round"></path>
    <path d="M135.21 48.265c-.208-1.41-2.304-3.745-4.223-3.725-2.48-2.52-6.191-5.04-8.347-.61a.815.815 0 00-.009.702.811.811 0 00.537.45l7.047 1.828c.196 1.061.737 2.751 2.221 3.425.428.195.716.17.902 0 .333.33.515.812.299 1.504-.591 1.901-2.392 1.062-2.616.948a6.726 6.726 0 01-1.32 1.51c1.532.839 3.204 1.237 4.213-.096 1.315-1.737 1.584-3.97 1.296-5.936z" fill="#2E186A"></path>
    <path d="M102.096 52.483l-.37.781.458 1.167.914.216s.67-.332.085-.719c-.585-.386-.534-.231-.534-.231l.102-.583 1.211-.683" fill="#fff"></path>
    <path d="M102.096 52.483l-.37.781.458 1.167.914.216s.67-.332.085-.719c-.585-.386-.534-.231-.534-.231l.102-.583 1.211-.683" stroke="#2E186A" stroke-width=".609" stroke-linecap="round" stroke-linejoin="round"></path>
    <path d="M101.442 52.818l-.37.781.459 1.167.914.216s.668-.332.084-.719c-.585-.386-.533-.231-.533-.231l.101-.583 1.211-.683" fill="#fff"></path>
    <path d="M101.442 52.818l-.37.781.459 1.167.914.216s.668-.332.084-.719c-.585-.386-.533-.231-.533-.231l.101-.583 1.211-.683" stroke="#2E186A" stroke-width=".609" stroke-linecap="round" stroke-linejoin="round"></path>
    <path d="M100.712 52.935l-.406.851.498 1.269.991.235s.728-.36.092-.781c-.636-.422-.581-.252-.581-.252l.108-.633 1.319-.744" fill="#fff"></path>
    <path d="M100.712 52.935l-.406.851.498 1.269.991.235s.728-.36.092-.781c-.636-.422-.581-.252-.581-.252l.108-.633 1.319-.744" stroke="#2E186A" stroke-width=".609" stroke-linecap="round" stroke-linejoin="round"></path>
    <path d="M104.62 51.844c-.822.01-1.787.019-1.787.019s-1.941.376-2.242.424c-.3.048-1.801.8-1.74.97.152.405 1.41.146 2.055-.117.644-.264 2.079.01 2.079.01s.4 1.204.135 1.208c-.264.003-1.715-.115-1.928.332-.213.448-.123.792.437.726.561-.066 1.345.305 1.345.305s2.03-.347 2.529-.598c.498-.25 2.569 4.599 4.561 7.776 1.991 3.176 3.311 3.504 4.956 2.232 1.59-1.229-.521-4.143-1.495-5.2-.775-.839-5.124-5.362-6.955-7.265a2.647 2.647 0 00-1.95-.822zm28.307 27.815s10.118-3.36 13.084-6.111c1.421-1.32-1.542-5.332-7.275-.497-5.734 4.836-10.749 3.767-10.749 3.767l4.94 2.84z" fill="#fff" stroke="#2E186A" stroke-width=".609" stroke-linecap="round" stroke-linejoin="round"></path>
    <path d="M140.734 76.233l-2.397.065-2.051-9.642a.43.43 0 00-.417-.361l-15.162.23c-.277.005-.481.295-.417.594l1.923 10.285c.134.637.938 1.131 1.513 1.117 3.725-.06 14.901-.274 15.339-.281 2.016-.025 1.669-2.007 1.669-2.007z" fill="#FE7624"></path>
    <path d="M133.945 79.29c-3.382 1.42-5.379.293-6.401-1.613-.762-1.421-1.651-3.327-1.053-3.62.629-.13 1.388 2.243 1.388 2.243s-1.271-2.677-.621-2.82c.508-.102.992.984 1.538 2.658 0 0-.876-2.228-.864-2.586.035-1.015.908-1.095 1.765 2.514l-.747-2.538c-.141-.806.596-.695 1.004.04.437.785 1.595 3.433 1.883 4.294" fill="#fff"></path>
    <path d="M133.945 79.29c-3.382 1.42-5.379.293-6.401-1.613-.762-1.421-1.651-3.327-1.053-3.62.629-.13 1.388 2.243 1.388 2.243s-1.271-2.677-.621-2.82c.508-.102.992.984 1.538 2.658 0 0-.876-2.228-.864-2.586.035-1.015.908-1.095 1.765 2.514l-.747-2.538c-.141-.806.596-.695 1.004.04.437.785 1.595 3.433 1.883 4.294" stroke="#2E186A" stroke-width=".609" stroke-linecap="round" stroke-linejoin="round"></path>
    <path d="M131.04 76.376s.673-1.42 1.279-1.014c.606.406-.758 2.537-.758 2.537" fill="#fff"></path>
    <path d="M131.04 76.376s.673-1.42 1.279-1.014c.606.406-.758 2.537-.758 2.537" stroke="#2E186A" stroke-width=".609" stroke-linecap="round" stroke-linejoin="round"></path>
    <path d="M116.814 92.2l-.075-.07c-1.754-1.574-3.44-3.532-5.075-4.305-.423-2.2-2.279-4.677-9.704-3.303-4.67 1.155-5.7 2.875-5.182 4.557-1.598.96-4.872 3.314-7.802 7.851-4.06 6.293 9.041 16.24 11.351 16.24 2.309 0 18.592-6.36 18.592-6.36l.956-2.899a11.117 11.117 0 00-3.061-11.711z" fill="#FE7624"></path>
    <path d="M111.664 87.811c.177.913.108 1.778.086 2.305-.095 2.2-1.274 3.248-1.522 4.07 1.605-.957 3.09-3.16 3.813-4.603-.462-.433-1.575-1.38-2.377-1.772zm-9.13 6.543c-.795-.365-5.102-2.841-5.786-5.379-.812.438-1.827 1.079-2.613 2.023.913.554 6.07 3.618 8.35 3.45l.091-.007c-.013-.035-.029-.063-.042-.087z" fill="#2E186A"></path>
    <path d="M101.074 87.814l-.924.949s4.395 3.342 5.825 11.396a147.003 147.003 0 011.406 10.15l2.725-.146s-2.317-13.032-1.367-15.785c.95-2.754.081-5.847-.558-6.347-.64-.5-7.107-.217-7.107-.217z" fill="#fff"></path>
    <path d="M100.209 82.14s-1.588.425-.95 1.782c.64 1.358 2.198.097 2.198.097l-.738-1.971-.51.092z" fill="#fff" stroke="#2E186A" stroke-width=".609" stroke-linecap="round" stroke-linejoin="round"></path>
    <path d="M103.642 76.517c.412-.139 3.248-1.032 4.162 1.293.913 2.326 1.224 5.064 1.256 6.342.033 1.278-5.621 2.079-5.96 2.047-.339-.031-.8-.304-.8-.304l-1.668-3.504s-1.414-4.384 3.01-5.874z" fill="#fff" stroke="#2E186A" stroke-width=".609" stroke-linecap="round" stroke-linejoin="round"></path>
    <path d="M102.145 85.128l-.101 1.762-.872 1.002a25.178 25.178 0 015.046 4.402s2.019-2.131 2.372-5.47l-4.728.586-.372-1.847-1.345-.435z" fill="#fff" stroke="#2E186A" stroke-width=".609" stroke-linecap="round" stroke-linejoin="round"></path>
    <path d="M101.162 82.221c.337.198 1.443 1.545 1.796 2.213 0 0 1.655-1.043 4.228-1.718 0 0 1.415-.32 2.017-.295 0 0 .501 2.552-.318 4.14-.819 1.587-3.323 1.817-4.649 1.312-1.327-.506-1.606-.834-2.075-1.608-.469-.774-1.935-3.735-1.935-3.735l.936-.309z" fill="#968BB4"></path>
    <path d="M100.556 82.947s-1.037-.975-1.624-2.11a2.561 2.561 0 01.608-3.151c.774-.643 1.508-.47 1.508-.47s-1.32-1.356-.272-3.104a2.622 2.622 0 011.687-1.208 2.525 2.525 0 012.604.942s.999-3.81 5.238-2.749c.428.107.991.562 1.288.888 1.802 1.975-1.61 5.683-3.682 6.423-2.274.812-3.735.761-4.626.377.638.197.872 3.843-2.729 4.162z" fill="#2E186A"></path>
    <path d="M106.893 81.763l.795 2.134-.824-.007" stroke="#2E186A" stroke-width=".609" stroke-linecap="round" stroke-linejoin="round"></path>
    <path d="M107.969 81.877c.124-.03.186-.211.139-.403-.048-.193-.187-.323-.311-.293-.124.031-.186.212-.139.404.048.192.187.323.311.292zm-2.032.493c.127-.006.222-.172.212-.37-.011-.197-.123-.352-.251-.345-.128.007-.222.173-.212.37.011.198.123.352.251.346z" fill="#2E186A"></path>
    <path d="M104.366 81.167a1.06 1.06 0 01.914-.575m1.824-1.036s.731-.479 1.153-.057" stroke="#2E186A" stroke-width=".609" stroke-linecap="round" stroke-linejoin="round"></path>
    <path d="M106.861 85.395c-.722-.068-.969-.43-.969-.43l1.247-.08s.2.5-.278.51z" fill="#2E186A" stroke="#2E186A" stroke-width=".609" stroke-linecap="round" stroke-linejoin="round"></path>
    <path d="M103.024 93.751s1.225 2.842 1.421 4.847m5.157-4.717s.217 2.477.431 4.48M94.61 99.803s1.302-1.436 3.427-.115l1.896-1.685m2.891 4.404c-.23-.115-4.96-2.814-4.96-2.814m16.691-.056l-.942-2.14" stroke="#2E186A" stroke-width=".609" stroke-linecap="round" stroke-linejoin="round"></path>
    <path d="M102.59 110.755s-4.712-1.959-10.54-5.998c-5.828-4.04-9.534 2.216-7.972 4.767 1.383 2.258 9.14 10.009 9.14 10.009l26.409-.214s6.207-7.816 7.181-9.034c3.294-4.137.573-6.323-3.045-6.639-3.408-.299-12.602 6.401-13.733 7.264l-7.44-.155z" fill="#2E186A"></path>
    <path d="M118.751 99.316h-16.977a.477.477 0 00-.467.37l-2.3 9.737h-4.262s-.387 1.996 1.867 1.996h2.392c.044.013.09.02.137.02h16.971a.481.481 0 00.467-.369l2.639-11.165a.484.484 0 00-.258-.541.483.483 0 00-.209-.048z" fill="#5D21D1"></path>
    <path d="M.305 119.494h159.391" stroke="#2E186A" stroke-width=".609" stroke-linecap="round" stroke-linejoin="round"></path>
  </g>
  <defs>
    <clipPath id="clip0_10436_607">
      <path fill="#fff" transform="translate(0 40.201)" d="M0 0h160v79.597H0z"></path>
    </clipPath>
  </defs>
</svg>
